<?xml version="1.0" standalone="no"?>
<!DOCTYPE svg PUBLIC "-//W3C//DTD SVG 1.1//EN"
"http://www.w3.org/Graphics/SVG/1.1/DTD/svg11.dtd">
<svg height="600" version="1.1" width="800" xmlns="http://www.w3.org/2000/svg"><g><rect fill="#f9f9f9" height="600" width="800" x="0" y="0" /><g transform="translate(40 40)"><g transform="translate(54 0)" /><g transform="translate(0 0)"><g transform="translate(54 0)"><g class="axis bottom"><text dy="1em" fill="#666" font-family="Monaco" text-anchor="middle" transform="" x="333.0" y="506.0">Year</text><g class="tick"><line stroke="#eee" stroke-width="1" x1="27.75" x2="27.75" y1="0" y2="472.0" /><text dy="1em" fill="#9c9c9c" font-family="Monaco" text-anchor="middle" x="27.75" y="476.0">2005</text></g><g class="tick"><line stroke="#eee" stroke-width="1" x1="83.25" x2="83.25" y1="0" y2="472.0" /><text dy="1em" fill="#9c9c9c" font-family="Monaco" text-anchor="middle" x="83.25" y="476.0">2006</text></g><g class="tick"><line stroke="#eee" stroke-width="1" x1="138.75" x2="138.75" y1="0" y2="472.0" /><text dy="1em" fill="#9c9c9c" font-family="Monaco" text-anchor="middle" x="138.75" y="476.0">2007</text></g><g class="tick"><line stroke="#eee" stroke-width="1" x1="194.25" x2="194.25" y1="0" y2="472.0" /><text dy="1em" fill="#9c9c9c" font-family="Monaco" text-anchor="middle" x="194.25" y="476.0">2008</text></g><g class="tick"><line stroke="#eee" stroke-width="1" x1="249.75" x2="249.75" y1="0" y2="472.0" /><text dy="1em" fill="#9c9c9c" font-family="Monaco" text-anchor="middle" x="249.75" y="476.0">2009</text></g><g class="tick"><line stroke="#eee" stroke-width="1" x1="305.25" x2="305.25" y1="0" y2="472.0" /><text dy="1em" fill="#9c9c9c" font-family="Monaco" text-anchor="middle" x="305.25" y="476.0">2010</text></g><g class="tick"><line stroke="#eee" stroke-width="1" x1="360.75" x2="360.75" y1="0" y2="472.0" /><text dy="1em" fill="#9c9c9c" font-family="Monaco" text-anchor="middle" x="360.75" y="476.0">2011</text></g><g class="tick"><line stroke="#eee" stroke-width="1" x1="416.25" x2="416.25" y1="0" y2="472.0" /><text dy="1em" fill="#9c9c9c" font-family="Monaco" text-anchor="middle" x="416.25" y="476.0">2012</text></g><g class="tick"><line stroke="#eee" stroke-width="1" x1="471.75" x2="471.75" y1="0" y2="472.0" /><text dy="1em" fill="#9c9c9c" font-family="Monaco" text-anchor="middle" x="471.75" y="476.0">2013</text></g><g class="tick"><line stroke="#eee" stroke-width="1" x1="527.25" x2="527.25" y1="0" y2="472.0" /><text dy="1em" fill="#9c9c9c" font-family="Monaco" text-anchor="middle" x="527.25" y="476.0">2014</text></g><g class="tick"><line stroke="#eee" stroke-width="1" x1="582.75" x2="582.75" y1="0" y2="472.0" /><text dy="1em" fill="#9c9c9c" font-family="Monaco" text-anchor="middle" x="582.75" y="476.0">2015</text></g><g class="tick"><line stroke="#eee" stroke-width="1" x1="638.25" x2="638.25" y1="0" y2="472.0" /><text dy="1em" fill="#9c9c9c" font-family="Monaco" text-anchor="middle" x="638.25" y="476.0">2016</text></g></g><g class="axis left"><text dy="" fill="#666" font-family="Monaco" text-anchor="middle" transform="rotate(270 -32 234)" x="-32" y="234.0">Count</text><g class="tick"><line stroke="#eee" stroke-width="1" x1="-4" x2="666.0" y1="351.00" y2="351.00" /><text dy="0.32em" fill="#9c9c9c" font-family="Monaco" text-anchor="end" x="-8" y="351.00">10</text></g><g class="tick"><line stroke="#eee" stroke-width="1" x1="-4" x2="666.0" y1="234.0" y2="234.0" /><text dy="0.32em" fill="#9c9c9c" font-family="Monaco" text-anchor="end" x="-8" y="234.0">20</text></g><g class="tick"><line stroke="#eee" stroke-width="1" x1="-4" x2="666.0" y1="117.00" y2="117.00" /><text dy="0.32em" fill="#9c9c9c" font-family="Monaco" text-anchor="end" x="-8" y="117.00">30</text></g><g class="tick"><line stroke="#eee" stroke-width="1" x1="-4" x2="666.0" y1="0" y2="0" /><text dy="0.32em" fill="#9c9c9c" font-family="Monaco" text-anchor="end" x="-8" y="0">40</text></g><g class="tick"><line stroke="#a8a8a8" stroke-width="1" x1="-4" x2="666.0" y1="468" y2="468" /><text dy="0.32em" fill="#9c9c9c" font-family="Monaco" text-anchor="end" x="-8" y="468">0</text></g></g><g><g class="series columns"><rect fill="#e41a1c" height="234.0" width="49.950" x="2.775" y="234.0" /><rect fill="#e41a1c" height="432.900" width="49.950" x="58.275" y="35.100" /><rect fill="#e41a1c" height="432.900" width="49.950" x="113.775" y="35.100" /><rect fill="#e41a1c" height="222.300" width="49.950" x="169.275" y="245.700" /><rect fill="#e41a1c" height="234.0" width="49.950" x="224.775" y="234.0" /><rect fill="#e41a1c" height="234.0" width="49.950" x="280.275" y="234.0" /><rect fill="#e41a1c" height="304.20" width="49.950" x="335.775" y="163.80" /><rect fill="#e41a1c" height="187.2" width="49.950" x="391.275" y="280.8" /><rect fill="#e41a1c" height="245.700" width="49.950" x="446.775" y="222.300" /><rect fill="#e41a1c" height="292.500" width="49.950" x="502.275" y="175.500" /><rect fill="#e41a1c" height="444.60" width="49.950" x="557.775" y="23.40" /><rect fill="#e41a1c" height="117.00" width="49.950" x="613.275" y="351.00" /></g></g></g></g></g></g></svg>